HIERARCHY
ROOT Hips
{
	OFFSET -0.001795 -0.223333 0.028219
	CHANNELS 6 Xposition Yposition Zposition Zrotation Yrotation Xrotation 
	JOINT LeftUpLeg
	{
		OFFSET 0.069520 -0.091406 -0.006815
		CHANNELS 3 Zrotation Yrotation Xrotation
		JOINT LeftLeg
		{
			OFFSET 0.034277 -0.375199 -0.004496
			CHANNELS 3 Zrotation Yrotation Xrotation
			JOINT LeftFoot
			{
				OFFSET -0.013596 -0.397961 -0.043693
				CHANNELS 3 Zrotation Yrotation Xrotation
				JOINT LeftToe
				{
					OFFSET 0.026358 -0.055791 0.119288
					CHANNELS 3 Zrotation Yrotation Xrotation
					End Site
					{
						OFFSET 0.000000 0.000000 0.000000
					}
				}
			}
		}
	}
	JOINT RightUpLeg
	{
		OFFSET -0.067670 -0.090522 -0.004320
		CHANNELS 3 Zrotation Yrotation Xrotation
		JOINT RightLeg
		{
			OFFSET -0.038290 -0.382569 -0.008850
			CHANNELS 3 Zrotation Yrotation Xrotation
			JOINT RightFoot
			{
				OFFSET 0.015774 -0.398415 -0.042312
				CHANNELS 3 Zrotation Yrotation Xrotation
				JOINT RightToe
				{
					OFFSET -0.025372 -0.048144 0.123348
					CHANNELS 3 Zrotation Yrotation Xrotation
					End Site
					{
						OFFSET 0.000000 0.000000 0.000000
					}
				}
			}
		}
	}
	JOINT Spine
	{
		OFFSET -0.002533 0.108963 -0.026696
		CHANNELS 3 Zrotation Yrotation Xrotation
		JOINT Spine1
		{
			OFFSET 0.005487 0.135180 0.001092
			CHANNELS 3 Zrotation Yrotation Xrotation
			JOINT Spine2
			{
				OFFSET 0.001457 0.052922 0.025425
				CHANNELS 3 Zrotation Yrotation Xrotation
				JOINT Neck
				{
					OFFSET -0.002778 0.213870 -0.042857
					CHANNELS 3 Zrotation Yrotation Xrotation
					JOINT Head
					{
						OFFSET 0.005152 0.064970 0.051349
						CHANNELS 3 Zrotation Yrotation Xrotation
						End Site
						{
							OFFSET 0.000000 0.000000 0.000000
						}
					}
				}
				JOINT LeftShoulder
				{
					OFFSET 0.078845 0.121749 -0.034090
					CHANNELS 3 Zrotation Yrotation Xrotation
					JOINT LeftArm
					{
						OFFSET 0.090977 0.030469 -0.008868
						CHANNELS 3 Zrotation Yrotation Xrotation
						JOINT LeftForeArm
						{
							OFFSET 0.259612 -0.012772 -0.027456
							CHANNELS 3 Zrotation Yrotation Xrotation
							JOINT LeftHand
							{
								OFFSET 0.249234 0.008986 -0.001171
								CHANNELS 3 Zrotation Yrotation Xrotation
								End Site
								{
									OFFSET 0.000000 0.000000 0.000000
								}
							}
						}
					}
				}
				JOINT RightShoulder
				{
					OFFSET -0.081759 0.118833 -0.038615
					CHANNELS 3 Zrotation Yrotation Xrotation
					JOINT RightArm
					{
						OFFSET -0.096012 0.032551 -0.009143
						CHANNELS 3 Zrotation Yrotation Xrotation
						JOINT RightForeArm
						{
							OFFSET -0.253742 -0.013329 -0.021401
							CHANNELS 3 Zrotation Yrotation Xrotation
							JOINT RightHand
							{
								OFFSET -0.255298 0.007772 -0.005559
								CHANNELS 3 Zrotation Yrotation Xrotation
								End Site
								{
									OFFSET 0.000000 0.000000 0.000000
								}
							}
						}
					}
				}
			}
		}
	}
}
MOTION
Frames: 15
Frame Time: 0.050000
0.138930 0.878331 0.340237 -1.193538 18.196274 3.732265 -0.795534 0.828047 29.963047 3.897205 0.190411 -9.832050 -1.228084 -6.307245 -4.949012 0.000000 0.000000 0.000000 -3.855964 -0.093792 -40.750148 0.936188 -0.043898 6.844333 2.385820 -2.636319 28.407749 0.000000 0.000000 0.000000 1.202386 -1.291639 16.017305 8.389926 -3.227964 -5.532513 -1.380395 -19.580523 1.279181 -1.662339 1.526717 -29.425582 0.000000 0.000000 0.000000 -22.818771 6.783228 -3.477255 -40.126419 -29.598589 4.311471 -17.814848 -51.996921 12.908924 0.000000 0.000000 0.000000 21.214798 -10.255375 -10.348917 43.764790 -4.456708 -4.856410 5.705505 13.530244 0.755142 0.000000 0.000000 0.000000 
0.148940 0.869916 0.421588 -1.777127 19.308214 5.327787 0.491551 0.205932 31.712340 5.281405 0.087308 -8.236564 -3.623625 -5.513903 2.286823 0.000000 0.000000 0.000000 -2.780526 0.011599 -42.634511 1.047211 -0.142358 13.238294 3.115713 -0.587033 24.614869 0.000000 0.000000 0.000000 3.238103 -1.518340 14.697649 7.480173 -2.754801 -5.802942 -0.613169 -21.384065 -0.778109 -2.169797 1.715544 -31.418880 0.000000 0.000000 0.000000 -22.785182 7.438355 -3.593434 -42.368465 -29.924828 4.997914 -23.688102 -55.354083 17.489473 0.000000 0.000000 0.000000 21.564832 -10.741717 -11.072298 42.185700 -7.129890 -5.313569 4.261905 12.422616 0.536520 0.000000 0.000000 0.000000 
0.156643 0.874515 0.514908 -2.690455 18.926903 6.811519 2.375253 -0.377178 31.572426 6.093330 -0.363552 -2.301680 -7.022508 -5.433182 11.139097 0.000000 0.000000 0.000000 -0.994273 0.638235 -45.426790 2.273951 -0.982707 25.013895 1.985236 -0.317985 15.688566 0.000000 0.000000 0.000000 4.550391 -1.387629 11.896758 8.424613 -2.967561 -7.061972 -2.085471 -20.676595 -0.735898 -2.860956 2.101147 -30.494048 0.000000 0.000000 0.000000 -22.729469 9.570276 -5.188145 -45.555851 -26.339525 4.315626 -32.920907 -56.192111 23.099078 0.000000 0.000000 0.000000 20.833876 -11.673161 -11.023075 41.050213 -7.030880 -5.166253 4.893221 9.353890 0.454291 0.000000 0.000000 0.000000 
0.161427 0.890915 0.613521 -3.513287 18.208522 6.492257 4.402851 -0.693874 27.236965 6.361353 -1.607083 9.458513 -11.116442 -4.790284 22.504014 0.000000 0.000000 0.000000 1.432258 1.920428 -40.238255 2.777342 -1.405867 27.658694 0.525074 -1.029758 8.100861 0.000000 0.000000 0.000000 5.760874 -1.493954 11.335248 7.119953 -2.368408 -7.496700 -1.394240 -18.999935 -0.984193 -3.539979 2.543221 -31.742620 0.000000 0.000000 0.000000 -24.531566 10.012981 -5.968850 -47.063463 -22.969405 3.180271 -38.893534 -52.600156 24.434205 0.000000 0.000000 0.000000 18.863877 -11.244249 -9.846303 42.946305 -8.636356 -6.123970 5.422652 9.540119 0.510019 0.000000 0.000000 0.000000 
0.165045 0.910660 0.708174 -3.930098 16.316063 6.619752 4.819620 -0.211381 16.601747 4.392016 -3.609096 26.880014 -7.271241 -0.180690 21.985309 0.000000 0.000000 0.000000 4.775080 3.087218 -33.158035 1.462652 -0.728005 26.110740 0.481954 0.200398 3.316781 0.000000 0.000000 0.000000 5.763211 -1.383649 10.633965 5.289123 -1.600304 -7.821152 -0.871630 -16.093686 0.162266 -3.282129 2.570459 -30.075827 0.000000 0.000000 0.000000 -24.072522 8.668540 -5.565576 -47.042026 -18.404684 1.357941 -39.619215 -48.852867 22.466976 0.000000 0.000000 0.000000 20.188955 -9.698651 -9.096747 42.583436 -7.469260 -5.719256 6.091632 10.556020 0.653719 0.000000 0.000000 0.000000 
0.169519 0.927388 0.798614 -4.312362 14.990675 5.053238 5.252865 -0.225835 3.207224 -0.064879 -4.499451 43.656163 -0.663075 3.152756 8.442495 0.000000 0.000000 0.000000 7.984964 3.032752 -22.221120 -0.140470 0.078174 20.553614 0.588092 1.482825 0.151660 0.000000 0.000000 0.000000 4.729781 -1.397796 12.323574 3.752648 -1.075052 -7.079195 1.192794 -11.596878 0.418192 -3.875141 3.162095 -29.252632 0.000000 0.000000 0.000000 -24.781538 7.451008 -5.820589 -46.494184 -15.022423 0.158864 -37.326652 -44.543845 18.467410 0.000000 0.000000 0.000000 20.758586 -7.741986 -7.444318 43.736925 -3.433279 -4.722862 5.550410 12.892581 0.835129 0.000000 0.000000 0.000000 
0.175800 0.940189 0.888800 -3.470193 12.127474 3.496170 4.503284 -0.772862 -10.356257 -4.688312 -2.354726 50.198633 4.160428 8.959542 0.899233 0.000000 0.000000 0.000000 9.402155 1.583340 -10.097643 -2.119202 0.739792 13.113314 1.732449 4.886931 -0.840075 0.000000 0.000000 0.000000 2.572863 -1.100230 13.150008 2.378834 -0.536469 -7.456826 1.688543 -6.534393 1.693501 -2.095620 2.776401 -28.932538 0.000000 0.000000 0.000000 -24.149083 7.211152 -6.565450 -45.816023 -10.264281 -1.475704 -35.818425 -39.297371 14.878241 0.000000 0.000000 0.000000 20.393407 -7.165090 -6.128684 44.699497 0.536985 -3.805312 8.179101 17.547649 1.635652 0.000000 0.000000 0.000000 
0.183668 0.945951 0.980784 -2.726474 8.271607 1.410462 3.314979 -1.522011 -19.447250 -5.385898 -0.231661 37.158741 11.767763 23.533528 14.017567 0.000000 0.000000 0.000000 8.770477 -0.481156 1.630938 -3.007700 0.739801 6.672310 4.230680 10.393764 1.059645 0.000000 0.000000 0.000000 0.490825 -0.805912 14.096307 0.648951 0.030755 -6.229387 2.510118 -1.112253 0.570352 -2.762468 3.386652 -27.037288 0.000000 0.000000 0.000000 -21.368738 8.840205 -7.718263 -45.871393 -4.465793 -3.329492 -34.825161 -34.608063 12.095112 0.000000 0.000000 0.000000 19.562640 -6.131958 -4.687085 46.716608 4.898762 -2.489310 10.522920 22.644724 2.746978 0.000000 0.000000 0.000000 
0.193112 0.944711 1.074939 -2.588516 4.468827 0.199790 2.710040 -1.813432 -23.144625 -2.220181 -0.061112 12.692342 16.976885 27.650631 36.102112 0.000000 0.000000 0.000000 7.439904 -2.077901 10.931294 -3.731114 0.621377 2.842557 7.451706 15.711561 4.506166 0.000000 0.000000 0.000000 -0.466705 -0.591534 13.797747 -0.818834 0.610337 -7.371201 3.087180 2.436984 2.417697 -1.817582 3.180901 -27.949058 0.000000 0.000000 0.000000 -20.926881 11.034542 -9.102220 -43.607138 -0.478196 -4.587042 -35.285290 -30.042900 10.349899 0.000000 0.000000 0.000000 18.386086 -5.680266 -3.881284 48.332751 9.309901 -1.091753 12.785384 28.557807 4.290626 0.000000 0.000000 0.000000 
0.205096 0.943527 1.171535 -2.210182 1.350238 -0.400830 2.715893 -1.716340 -23.712822 -1.338380 0.146677 -0.162245 4.190750 14.178619 29.390212 0.000000 0.000000 0.000000 5.804638 -2.810222 17.072877 -5.570961 0.983253 4.282831 10.350738 18.935185 8.239251 0.000000 0.000000 0.000000 -1.252721 -0.389610 12.442769 -1.724917 0.899560 -5.508700 3.628302 4.596395 1.043289 -3.118143 3.725016 -25.455531 0.000000 0.000000 0.000000 -21.364482 12.426878 -10.065673 -42.293063 2.197089 -5.179014 -32.597559 -25.761351 8.078206 0.000000 0.000000 0.000000 16.321302 -4.680427 -3.106550 49.513723 11.984556 0.173224 15.975823 34.927359 6.433572 0.000000 0.000000 0.000000 
0.219928 0.942551 1.271724 -0.964180 1.626996 -1.624429 -0.908650 -2.083295 -20.351833 0.041813 0.030552 -1.002364 -0.759993 7.259259 24.143258 0.000000 0.000000 0.000000 3.475436 -2.759586 19.643218 -5.644195 1.812641 13.507616 10.949617 17.017078 12.098290 0.000000 0.000000 0.000000 -2.977430 -0.186006 11.507864 -1.404003 0.746943 -3.956283 4.255383 2.509875 1.374439 -4.604458 4.229317 -26.561518 0.000000 0.000000 0.000000 -22.133603 14.853943 -11.110160 -42.039646 4.383477 -6.006574 -30.573546 -26.027619 7.909044 0.000000 0.000000 0.000000 17.256659 -5.212952 -3.901995 50.313325 14.441129 1.230493 22.074222 39.025024 9.189849 0.000000 0.000000 0.000000 
0.237425 0.938204 1.372633 -0.067517 1.344915 -3.122221 -3.681105 -1.906431 -15.270783 0.623150 -0.226170 3.867074 -1.165619 4.726049 17.396074 0.000000 0.000000 0.000000 0.980829 -1.768469 15.577653 -4.356898 2.955303 31.585437 12.066359 14.764172 17.827518 0.000000 0.000000 0.000000 -3.936144 -0.094662 10.567631 -1.202668 0.662753 -4.269762 4.704426 0.019235 4.183436 -6.236597 4.767057 -26.176868 0.000000 0.000000 0.000000 -24.305636 14.514587 -10.852888 -41.365114 2.557102 -5.682834 -31.343855 -24.340693 7.855224 0.000000 0.000000 0.000000 15.469441 -4.717950 -3.845035 51.886689 13.638451 0.758599 24.502347 39.931216 9.965972 0.000000 0.000000 0.000000 
0.255429 0.934582 1.468375 0.703098 3.109173 -5.001890 -6.660747 -0.997266 -6.654792 1.566901 -0.350141 3.614625 -1.458272 1.624779 9.537259 0.000000 0.000000 0.000000 -0.087394 -0.575570 5.554078 -3.758719 3.739204 50.015734 11.732040 10.409391 23.849290 0.000000 0.000000 0.000000 -4.361376 -0.127414 13.121527 -0.377275 0.288385 -3.058821 3.052219 -3.534253 2.684433 -6.379241 4.550996 -26.852455 0.000000 0.000000 0.000000 -26.128469 11.271828 -8.695167 -41.926529 -0.868658 -4.798701 -28.452347 -26.762071 8.131194 0.000000 0.000000 0.000000 18.481851 -4.170232 -4.622341 50.812685 10.143232 -0.500626 22.969101 35.712065 7.860340 0.000000 0.000000 0.000000 
0.271110 0.933110 1.559702 1.504402 5.225491 -7.756647 -8.376754 0.333334 2.397924 1.612349 -0.383202 4.083248 -1.180771 -0.785859 3.047688 0.000000 0.000000 0.000000 -1.473124 0.610546 -7.260663 -2.330860 2.694320 60.735889 6.744346 6.453262 15.629495 0.000000 0.000000 0.000000 -4.657926 -0.230982 16.933252 0.924196 -0.251385 -3.827707 0.934354 -6.466981 3.054697 -6.602887 4.504610 -27.769328 0.000000 0.000000 0.000000 -27.704495 7.356001 -6.024898 -40.415351 -7.423480 -2.858206 -25.088830 -29.797065 8.244348 0.000000 0.000000 0.000000 20.880111 -5.344180 -6.066563 49.114161 5.348157 -2.338194 18.508368 29.106891 5.017971 0.000000 0.000000 0.000000 
0.284264 0.931637 1.651374 0.595032 7.448414 -9.053408 -8.646395 1.637809 11.187863 4.114222 -0.565187 1.861393 -1.424842 -3.313552 -0.500988 0.000000 0.000000 0.000000 -0.548153 1.552808 -18.143815 -1.382504 1.114046 47.706501 0.562399 -3.953062 14.439327 0.000000 0.000000 0.000000 -2.764789 -0.604590 18.420081 1.647292 -0.569422 -3.508485 0.232702 -10.566436 2.116989 -7.528406 4.655288 -26.790769 0.000000 0.000000 0.000000 -29.174857 7.147354 -5.187290 -40.927813 -14.523035 -0.856643 -22.706446 -33.142387 8.708994 0.000000 0.000000 0.000000 20.166261 -6.032597 -6.934258 46.961439 -0.067879 -4.051382 18.112365 22.820513 3.564824 0.000000 0.000000 0.000000 
